<svg width="366" height="664" viewBox="0 0 366 664" fill="none" xmlns="http://www.w3.org/2000/svg">
<g clip-path="url(#clip0_851_1639)">
<path d="M1.44531 12H364.556" stroke="#8B6F00" stroke-width="3.37778" stroke-linecap="round"/>
<path d="M364.556 12V476.444L288.556 535.556H246.334V662.222" stroke="#8B6F00" stroke-width="3.37778" stroke-linecap="round" stroke-linejoin="round"/>
<path d="M246.333 662.223H195.666" stroke="#8B6F00" stroke-width="3.37778" stroke-linecap="round"/>
<path d="M145.001 662.223H1.44531" stroke="#8B6F00" stroke-width="3.37778" stroke-linecap="round"/>
<path d="M1.44531 662.222V12" stroke="#8B6F00" stroke-width="3.37778" stroke-linecap="round"/>
<path d="M145 662.224C145 655.505 147.669 649.062 152.42 644.311C157.171 639.56 163.615 636.891 170.333 636.891C177.052 636.891 183.496 639.56 188.247 644.311C192.998 649.062 195.667 655.505 195.667 662.224" stroke="#8B6F00" stroke-width="2.53333" stroke-linecap="round"/>
<path d="M69 12.0005C69 9.31299 70.0676 6.73554 71.968 4.83517C73.8684 2.9348 76.4458 1.86719 79.1333 1.86719C81.8209 1.86719 84.3983 2.9348 86.2987 4.83517C88.1991 6.73554 89.2667 9.31299 89.2667 12.0005" stroke="#8B6F00" stroke-width="2.53333" stroke-linecap="round"/>
<path d="M50.4231 130.223H3.1342C2.20145 130.223 1.44531 130.979 1.44531 131.912V525.423C1.44531 526.355 2.20145 527.112 3.1342 527.112H50.4231C51.3558 527.112 52.112 526.355 52.112 525.423V131.912C52.112 130.979 51.3558 130.223 50.4231 130.223Z" stroke="#8B6F00" stroke-width="3.37778"/>
<path d="M329.089 37.332H129.8C128.867 37.332 128.111 38.0882 128.111 39.0209V77.8654C128.111 78.7981 128.867 79.5543 129.8 79.5543H329.089C330.022 79.5543 330.778 78.7981 330.778 77.8654V39.0209C330.778 38.0882 330.022 37.332 329.089 37.332Z" stroke="#8B6F00" stroke-width="3.37778"/>
<path d="M215.089 147.109H188.912C187.979 147.109 187.223 147.866 187.223 148.798V364.976C187.223 365.909 187.979 366.665 188.912 366.665H215.089C216.022 366.665 216.778 365.909 216.778 364.976V148.798C216.778 147.866 216.022 147.109 215.089 147.109Z" stroke="#8B6F00" stroke-width="3.37778"/>
<path d="M244.644 147.109H218.466C217.533 147.109 216.777 147.866 216.777 148.798V364.976C216.777 365.909 217.533 366.665 218.466 366.665H244.644C245.577 366.665 246.333 365.909 246.333 364.976V148.798C246.333 147.866 245.577 147.109 244.644 147.109Z" stroke="#8B6F00" stroke-width="3.37778"/>
</g>
<defs>
<clipPath id="clip0_851_1639">
<rect width="366" height="664" fill="white"/>
</clipPath>
</defs>
</svg>
