<svg width="369" height="644" viewBox="0 0 369 644" fill="none" xmlns="http://www.w3.org/2000/svg">
<g clip-path="url(#clip0_827_1723)">
<mask id="mask0_827_1723" style="mask-type:luminance" maskUnits="userSpaceOnUse" x="0" y="0" width="369" height="644">
<path d="M369 0H0V644H369V0Z" fill="white"/>
</mask>
<g mask="url(#mask0_827_1723)">
<path d="M3 618.5H312" stroke="#8B6F00" stroke-width="3"/>
<path d="M-0.0078125 1.50134L205.992 0.460938" stroke="#8B6F00" stroke-width="3"/>
<path d="M1.5 620L1.50003 2" stroke="#8B6F00" stroke-width="3"/>
<path d="M204.5 284V1" stroke="#8B6F00" stroke-width="3"/>
<path d="M206 282.5H380" stroke="#8B6F00" stroke-width="3"/>
<path d="M310.5 430V620" stroke="#8B6F00" stroke-width="3"/>
<path d="M370.288 394.477L309.779 431.282" stroke="#8B6F00" stroke-width="3"/>
<path d="M367.5 395V284" stroke="#8B6F00" stroke-width="3"/>
<path d="M76.818 391.727C82.9392 391.727 88.2119 392.848 92.6362 395.091C97.0604 397.333 100.47 400.409 102.864 404.318C105.258 408.227 106.455 412.697 106.455 417.727C106.455 421.606 105.636 425.045 104 428.045C102.333 431.076 100.045 433.879 97.1362 436.455C94.1968 439.061 90.818 441.667 86.9998 444.273L73.5453 454.273C70.9089 456 68.8028 457.848 67.2271 459.818C65.621 461.788 64.818 464.364 64.818 467.545C64.818 469.909 65.8634 472.197 67.9543 474.409C70.015 476.621 72.7271 477.727 76.0907 477.727C78.4543 477.727 80.5453 477.121 82.3634 475.909C84.1513 474.727 85.5604 473.212 86.5907 471.364C87.5907 469.545 88.0907 467.667 88.0907 465.727C88.0907 463.545 87.4998 461.333 86.318 459.091C85.1059 456.879 83.5756 454.606 81.7271 452.273C79.8483 449.97 77.9089 447.606 75.9089 445.182L33.1816 393H46.0907L81.3634 435.545C84.6362 439.485 87.6059 443.061 90.2725 446.273C92.9392 449.485 95.0604 452.652 96.6362 455.773C98.2119 458.894 98.9998 462.273 98.9998 465.909C98.9998 470.091 98.0756 473.758 96.2271 476.909C94.3483 480.091 91.7271 482.561 88.3634 484.318C84.9695 486.106 80.9998 487 76.4543 487C71.7877 487 67.7725 486.091 64.4089 484.273C61.0453 482.485 58.4543 480.106 56.6362 477.136C54.818 474.197 53.9089 471 53.9089 467.545C53.9089 463.091 55.015 459.227 57.2271 455.955C59.4392 452.682 62.4543 449.636 66.2725 446.818L84.818 433C88.9998 429.909 91.8331 426.909 93.318 424C94.8028 421.091 95.5453 419 95.5453 417.727C95.5453 414.818 94.7877 412.106 93.2725 409.591C91.7574 407.076 89.621 405.045 86.8634 403.5C84.1059 401.955 80.8786 401.182 77.1816 401.182C73.6665 401.182 70.2422 401.924 66.9089 403.409C63.5756 404.924 60.5604 407.106 57.8634 409.955C55.1362 412.803 52.9847 416.227 51.4089 420.227C49.8028 424.227 48.9998 428.727 48.9998 433.727H38.6362C38.6362 427.545 39.3483 422.5 40.7725 418.591C42.1968 414.682 43.8028 411.621 45.5907 409.409C47.3786 407.197 48.818 405.545 49.9089 404.455C50.2725 404 50.6059 403.545 50.9089 403.091C51.2119 402.636 51.5453 402.182 51.9089 401.727C54.9089 398.364 58.6968 395.848 63.2725 394.182C67.8483 392.545 72.3634 391.727 76.818 391.727Z" fill="#8B6F00"/>
<path d="M205 232C209.509 232 213.833 233.949 217.021 237.419C220.209 240.888 222 245.593 222 250.5C222 255.407 220.209 260.112 217.021 263.581C213.833 267.051 209.509 269 205 269" stroke="#8B6F00" stroke-width="3" stroke-linecap="round"/>
<path d="M151 618C151 612.961 148.998 608.128 145.435 604.565C141.872 601.002 137.039 599 132 599C126.961 599 122.128 601.002 118.565 604.565C115.002 608.128 113 612.961 113 618" stroke="#8B6F00" stroke-width="3" stroke-linecap="round"/>
</g>
</g>
<defs>
<clipPath id="clip0_827_1723">
<rect width="369" height="644" fill="white"/>
</clipPath>
</defs>
</svg>
