<svg width="369" height="622" viewBox="0 0 369 622" fill="none" xmlns="http://www.w3.org/2000/svg">
<path d="M3.01562 619.539H312.016" stroke="#8B6F00" stroke-width="3"/>
<path d="M0.0078125 2.5404L206.007 1.5" stroke="#8B6F00" stroke-width="3"/>
<path d="M1.51562 621.039L1.51566 3.03906" stroke="#8B6F00" stroke-width="3"/>
<path d="M204.516 285.039V2.03906" stroke="#8B6F00" stroke-width="3"/>
<path d="M206.008 283.5H368.008" stroke="#8B6F00" stroke-width="3"/>
<path d="M310.516 431.039V621.039" stroke="#8B6F00" stroke-width="3"/>
<path d="M367.317 396.999L309.698 431.998" stroke="#8B6F00" stroke-width="3"/>
<path d="M366.516 397.039L366.516 284.039" stroke="#8B6F00" stroke-width="3"/>
<path d="M76.8337 392.766C82.9549 392.766 88.2276 393.887 92.6519 396.13C97.0761 398.372 100.485 401.448 102.879 405.357C105.273 409.266 106.47 413.736 106.47 418.766C106.47 422.645 105.651 426.084 104.015 429.084C102.348 432.115 100.06 434.918 97.1519 437.494C94.2125 440.1 90.8337 442.706 87.0155 445.312L73.561 455.312C70.9246 457.039 68.8185 458.887 67.2428 460.857C65.6367 462.827 64.8337 465.403 64.8337 468.584C64.8337 470.948 65.8791 473.236 67.97 475.448C70.0307 477.66 72.7428 478.766 76.1064 478.766C78.47 478.766 80.561 478.16 82.3791 476.948C84.167 475.766 85.5761 474.251 86.6064 472.403C87.6064 470.584 88.1064 468.706 88.1064 466.766C88.1064 464.584 87.5155 462.372 86.3337 460.13C85.1216 457.918 83.5913 455.645 81.7428 453.312C79.864 451.009 77.9246 448.645 75.9246 446.221L33.1973 394.039H46.1064L81.3791 436.584C84.6519 440.524 87.6216 444.1 90.2882 447.312C92.9549 450.524 95.0761 453.691 96.6519 456.812C98.2276 459.933 99.0155 463.312 99.0155 466.948C99.0155 471.13 98.0913 474.797 96.2428 477.948C94.364 481.13 91.7428 483.6 88.3791 485.357C84.9852 487.145 81.0155 488.039 76.47 488.039C71.8034 488.039 67.7882 487.13 64.4246 485.312C61.061 483.524 58.47 481.145 56.6519 478.175C54.8337 475.236 53.9246 472.039 53.9246 468.584C53.9246 464.13 55.0307 460.266 57.2428 456.994C59.4549 453.721 62.47 450.675 66.2882 447.857L84.8337 434.039C89.0155 430.948 91.8488 427.948 93.3337 425.039C94.8185 422.13 95.561 420.039 95.561 418.766C95.561 415.857 94.8034 413.145 93.2882 410.63C91.7731 408.115 89.6367 406.084 86.8791 404.539C84.1216 402.994 80.8943 402.221 77.1973 402.221C73.6822 402.221 70.2579 402.963 66.9246 404.448C63.5913 405.963 60.5761 408.145 57.8791 410.994C55.1519 413.842 53.0004 417.266 51.4246 421.266C49.8185 425.266 49.0155 429.766 49.0155 434.766H38.6519C38.6519 428.584 39.364 423.539 40.7882 419.63C42.2125 415.721 43.8185 412.66 45.6064 410.448C47.3943 408.236 48.8337 406.584 49.9246 405.494C50.2882 405.039 50.6216 404.584 50.9246 404.13C51.2276 403.675 51.561 403.221 51.9246 402.766C54.9246 399.403 58.7125 396.887 63.2882 395.221C67.864 393.584 72.3791 392.766 76.8337 392.766Z" fill="#8B6F00"/>
<path d="M205.016 233.039C209.525 233.039 213.849 234.988 217.037 238.458C220.225 241.927 222.016 246.632 222.016 251.539C222.016 256.446 220.225 261.151 217.037 264.62C213.849 268.09 209.525 270.039 205.016 270.039" stroke="#8B6F00" stroke-width="3" stroke-linecap="round"/>
<path d="M151.016 619.039C151.016 614 149.014 609.167 145.451 605.604C141.888 602.041 137.055 600.039 132.016 600.039C126.977 600.039 122.144 602.041 118.581 605.604C115.018 609.167 113.016 614 113.016 619.039" stroke="#8B6F00" stroke-width="3" stroke-linecap="round"/>
</svg>
