<svg width="370" height="622" viewBox="0 0 370 622" fill="none" xmlns="http://www.w3.org/2000/svg">
<g clip-path="url(#clip0_827_1723)">
<mask id="mask0_827_1723" style="mask-type:luminance" maskUnits="userSpaceOnUse" x="0" y="1" width="369" height="644">
<path d="M369 1H0V645H369V1Z" fill="white"/>
</mask>
<g mask="url(#mask0_827_1723)">
<path d="M3 619.5H312" stroke="#8B6F00" stroke-width="3"/>
<path d="M-0.0078125 2.50134L205.992 1.46094" stroke="#8B6F00" stroke-width="3"/>
<path d="M1.5 621L1.50003 3" stroke="#8B6F00" stroke-width="3"/>
<path d="M204.5 285V2" stroke="#8B6F00" stroke-width="3"/>
<path d="M206 283.5H380" stroke="#8B6F00" stroke-width="3"/>
<path d="M310.5 431V621" stroke="#8B6F00" stroke-width="3"/>
<path d="M370.288 395.477L309.779 432.282" stroke="#8B6F00" stroke-width="3"/>
<path d="M367.5 396V285" stroke="#8B6F00" stroke-width="3"/>
<path d="M76.818 392.727C82.9392 392.727 88.2119 393.848 92.6362 396.091C97.0604 398.333 100.47 401.409 102.864 405.318C105.258 409.227 106.455 413.697 106.455 418.727C106.455 422.606 105.636 426.045 104 429.045C102.333 432.076 100.045 434.879 97.1362 437.455C94.1968 440.061 90.818 442.667 86.9998 445.273L73.5453 455.273C70.9089 457 68.8028 458.848 67.2271 460.818C65.621 462.788 64.818 465.364 64.818 468.545C64.818 470.909 65.8634 473.197 67.9543 475.409C70.015 477.621 72.7271 478.727 76.0907 478.727C78.4543 478.727 80.5453 478.121 82.3634 476.909C84.1513 475.727 85.5604 474.212 86.5907 472.364C87.5907 470.545 88.0907 468.667 88.0907 466.727C88.0907 464.545 87.4998 462.333 86.318 460.091C85.1059 457.879 83.5756 455.606 81.7271 453.273C79.8483 450.97 77.9089 448.606 75.9089 446.182L33.1816 394H46.0907L81.3634 436.545C84.6362 440.485 87.6059 444.061 90.2725 447.273C92.9392 450.485 95.0604 453.652 96.6362 456.773C98.2119 459.894 98.9998 463.273 98.9998 466.909C98.9998 471.091 98.0756 474.758 96.2271 477.909C94.3483 481.091 91.7271 483.561 88.3634 485.318C84.9695 487.106 80.9998 488 76.4543 488C71.7877 488 67.7725 487.091 64.4089 485.273C61.0453 483.485 58.4543 481.106 56.6362 478.136C54.818 475.197 53.9089 472 53.9089 468.545C53.9089 464.091 55.015 460.227 57.2271 456.955C59.4392 453.682 62.4543 450.636 66.2725 447.818L84.818 434C88.9998 430.909 91.8331 427.909 93.318 425C94.8028 422.091 95.5453 420 95.5453 418.727C95.5453 415.818 94.7877 413.106 93.2725 410.591C91.7574 408.076 89.621 406.045 86.8634 404.5C84.1059 402.955 80.8786 402.182 77.1816 402.182C73.6665 402.182 70.2422 402.924 66.9089 404.409C63.5756 405.924 60.5604 408.106 57.8634 410.955C55.1362 413.803 52.9847 417.227 51.4089 421.227C49.8028 425.227 48.9998 429.727 48.9998 434.727H38.6362C38.6362 428.545 39.3483 423.5 40.7725 419.591C42.1968 415.682 43.8028 412.621 45.5907 410.409C47.3786 408.197 48.818 406.545 49.9089 405.455C50.2725 405 50.6059 404.545 50.9089 404.091C51.2119 403.636 51.5453 403.182 51.9089 402.727C54.9089 399.364 58.6968 396.848 63.2725 395.182C67.8483 393.545 72.3634 392.727 76.818 392.727Z" fill="#8B6F00"/>
<path d="M205 233C209.509 233 213.833 234.949 217.021 238.419C220.209 241.888 222 246.593 222 251.5C222 256.407 220.209 261.112 217.021 264.581C213.833 268.051 209.509 270 205 270" stroke="#8B6F00" stroke-width="3" stroke-linecap="round"/>
<path d="M151 619C151 613.961 148.998 609.128 145.435 605.565C141.872 602.002 137.039 600 132 600C126.961 600 122.128 602.002 118.565 605.565C115.002 609.128 113 613.961 113 619" stroke="#8B6F00" stroke-width="3" stroke-linecap="round"/>
</g>
</g>
<defs>
<clipPath id="clip0_827_1723">
<rect width="370" height="622" fill="white"/>
</clipPath>
</defs>
</svg>
